<mxfile host="app.diagrams.net" modified="2022-04-25T03:48:01.578Z" agent="5.0 (Windows NT 6.2; Win64; x64) AppleWebKit/537.36 (KHTML, like Gecko) Chrome/100.0.4896.127 Safari/537.36" etag="dKQkv_PMmwiBeLHbC-Sh" version="17.4.6" type="github">
  <diagram name="Page-1" id="74e2e168-ea6b-b213-b513-2b3c1d86103e">
    <mxGraphModel dx="1182" dy="614" grid="1" gridSize="10" guides="1" tooltips="1" connect="1" arrows="1" fold="1" page="1" pageScale="1" pageWidth="1100" pageHeight="850" background="none" math="0" shadow="0">
      <root>
        <mxCell id="0" />
        <mxCell id="1" parent="0" />
        <mxCell id="77e6c97f196da883-1" value="快速集成功能" style="swimlane;html=1;childLayout=stackLayout;startSize=20;rounded=0;shadow=0;labelBackgroundColor=none;strokeWidth=1;fontFamily=Verdana;fontSize=8;align=center;" parent="1" vertex="1">
          <mxGeometry x="140" y="40" width="860" height="1770" as="geometry" />
        </mxCell>
        <mxCell id="77e6c97f196da883-2" value="开发人员" style="swimlane;html=1;startSize=20;" parent="77e6c97f196da883-1" vertex="1">
          <mxGeometry y="20" width="160" height="1750" as="geometry" />
        </mxCell>
        <mxCell id="77e6c97f196da883-8" value="创建GitLab访问凭据" style="rounded=1;whiteSpace=wrap;html=1;shadow=0;labelBackgroundColor=none;strokeWidth=1;fontFamily=Verdana;fontSize=8;align=center;" parent="77e6c97f196da883-2" vertex="1">
          <mxGeometry x="20" y="65" width="100" height="60" as="geometry" />
        </mxCell>
        <mxCell id="77e6c97f196da883-9" value="进入&quot;快速集成&quot;菜单" style="rounded=1;whiteSpace=wrap;html=1;shadow=0;labelBackgroundColor=none;strokeWidth=1;fontFamily=Verdana;fontSize=8;align=center;" parent="77e6c97f196da883-2" vertex="1">
          <mxGeometry x="20" y="260" width="100" height="60" as="geometry" />
        </mxCell>
        <mxCell id="-4ZueSVovbJm4pdZm2zm-3" value="创建GitLab工程" style="rounded=1;whiteSpace=wrap;html=1;" vertex="1" parent="77e6c97f196da883-2">
          <mxGeometry x="20" y="510" width="100" height="60" as="geometry" />
        </mxCell>
        <mxCell id="-4ZueSVovbJm4pdZm2zm-53" value="为某个工程&lt;br&gt;添加 /&amp;nbsp;删除 模块" style="rounded=1;whiteSpace=wrap;html=1;" vertex="1" parent="77e6c97f196da883-2">
          <mxGeometry x="20" y="1120" width="120" height="60" as="geometry" />
        </mxCell>
        <mxCell id="77e6c97f196da883-26" style="edgeStyle=orthogonalEdgeStyle;rounded=1;html=1;labelBackgroundColor=none;startArrow=none;startFill=0;startSize=5;endArrow=classicThin;endFill=1;endSize=5;jettySize=auto;orthogonalLoop=1;strokeWidth=1;fontFamily=Verdana;fontSize=8" parent="77e6c97f196da883-1" source="77e6c97f196da883-8" target="77e6c97f196da883-11" edge="1">
          <mxGeometry relative="1" as="geometry" />
        </mxCell>
        <mxCell id="77e6c97f196da883-28" style="edgeStyle=orthogonalEdgeStyle;rounded=1;html=1;labelBackgroundColor=none;startArrow=none;startFill=0;startSize=5;endArrow=classicThin;endFill=1;endSize=5;jettySize=auto;orthogonalLoop=1;strokeWidth=1;fontFamily=Verdana;fontSize=8" parent="77e6c97f196da883-1" source="77e6c97f196da883-9" target="77e6c97f196da883-12" edge="1">
          <mxGeometry relative="1" as="geometry" />
        </mxCell>
        <mxCell id="77e6c97f196da883-3" value="技术服务平台" style="swimlane;html=1;startSize=20;" parent="77e6c97f196da883-1" vertex="1">
          <mxGeometry x="160" y="20" width="200" height="1750" as="geometry" />
        </mxCell>
        <mxCell id="77e6c97f196da883-11" value="保存GitLab访问凭据" style="rounded=1;whiteSpace=wrap;html=1;shadow=0;labelBackgroundColor=none;strokeWidth=1;fontFamily=Verdana;fontSize=8;align=center;" parent="77e6c97f196da883-3" vertex="1">
          <mxGeometry x="30" y="65" width="100" height="60" as="geometry" />
        </mxCell>
        <mxCell id="77e6c97f196da883-12" value="根据用户ID获取GitLab访问凭据" style="rounded=1;whiteSpace=wrap;html=1;shadow=0;labelBackgroundColor=none;strokeWidth=1;fontFamily=Verdana;fontSize=8;align=center;" parent="77e6c97f196da883-3" vertex="1">
          <mxGeometry x="30" y="260" width="100" height="60" as="geometry" />
        </mxCell>
        <mxCell id="-4ZueSVovbJm4pdZm2zm-12" value="调用脚手架服务接口" style="whiteSpace=wrap;html=1;rounded=1;" vertex="1" parent="77e6c97f196da883-3">
          <mxGeometry x="30" y="600" width="120" height="60" as="geometry" />
        </mxCell>
        <mxCell id="-4ZueSVovbJm4pdZm2zm-17" value="调用GitLab接口" style="whiteSpace=wrap;html=1;rounded=1;" vertex="1" parent="77e6c97f196da883-3">
          <mxGeometry x="30" y="730" width="120" height="60" as="geometry" />
        </mxCell>
        <mxCell id="-4ZueSVovbJm4pdZm2zm-34" value="否" style="edgeStyle=orthogonalEdgeStyle;rounded=0;orthogonalLoop=1;jettySize=auto;html=1;" edge="1" parent="77e6c97f196da883-3" source="-4ZueSVovbJm4pdZm2zm-25" target="-4ZueSVovbJm4pdZm2zm-32">
          <mxGeometry relative="1" as="geometry" />
        </mxCell>
        <mxCell id="-4ZueSVovbJm4pdZm2zm-25" value="Framework模块&lt;br&gt;是否需要配置" style="rhombus;whiteSpace=wrap;html=1;rounded=1;" vertex="1" parent="77e6c97f196da883-3">
          <mxGeometry x="30" y="850" width="120" height="90" as="geometry" />
        </mxCell>
        <mxCell id="-4ZueSVovbJm4pdZm2zm-32" value="结束" style="whiteSpace=wrap;html=1;rounded=1;" vertex="1" parent="77e6c97f196da883-3">
          <mxGeometry x="30" y="990" width="120" height="60" as="geometry" />
        </mxCell>
        <mxCell id="-4ZueSVovbJm4pdZm2zm-38" value="结束" style="whiteSpace=wrap;html=1;fontSize=8;fontFamily=Verdana;rounded=1;shadow=0;labelBackgroundColor=none;strokeWidth=1;" vertex="1" parent="77e6c97f196da883-3">
          <mxGeometry x="27.5" y="170" width="105" height="50" as="geometry" />
        </mxCell>
        <mxCell id="-4ZueSVovbJm4pdZm2zm-39" value="" style="edgeStyle=orthogonalEdgeStyle;rounded=0;orthogonalLoop=1;jettySize=auto;html=1;" edge="1" parent="77e6c97f196da883-3" source="77e6c97f196da883-11" target="-4ZueSVovbJm4pdZm2zm-38">
          <mxGeometry relative="1" as="geometry" />
        </mxCell>
        <mxCell id="-4ZueSVovbJm4pdZm2zm-40" value="结束" style="whiteSpace=wrap;html=1;rounded=1;" vertex="1" parent="77e6c97f196da883-3">
          <mxGeometry x="30" y="380" width="100" height="60" as="geometry" />
        </mxCell>
        <mxCell id="-4ZueSVovbJm4pdZm2zm-54" value="调用GtiLab" style="whiteSpace=wrap;html=1;rounded=1;" vertex="1" parent="77e6c97f196da883-3">
          <mxGeometry x="40" y="1120" width="120" height="60" as="geometry" />
        </mxCell>
        <mxCell id="-4ZueSVovbJm4pdZm2zm-61" value="" style="edgeStyle=orthogonalEdgeStyle;rounded=0;orthogonalLoop=1;jettySize=auto;html=1;" edge="1" parent="77e6c97f196da883-3" source="-4ZueSVovbJm4pdZm2zm-58" target="-4ZueSVovbJm4pdZm2zm-60">
          <mxGeometry relative="1" as="geometry" />
        </mxCell>
        <mxCell id="-4ZueSVovbJm4pdZm2zm-58" value="解析&amp;nbsp;pom.xml" style="whiteSpace=wrap;html=1;rounded=1;" vertex="1" parent="77e6c97f196da883-3">
          <mxGeometry x="40" y="1200" width="120" height="60" as="geometry" />
        </mxCell>
        <mxCell id="-4ZueSVovbJm4pdZm2zm-63" value="" style="edgeStyle=orthogonalEdgeStyle;rounded=0;orthogonalLoop=1;jettySize=auto;html=1;" edge="1" parent="77e6c97f196da883-3" source="-4ZueSVovbJm4pdZm2zm-60" target="-4ZueSVovbJm4pdZm2zm-62">
          <mxGeometry relative="1" as="geometry" />
        </mxCell>
        <mxCell id="-4ZueSVovbJm4pdZm2zm-60" value="编辑Framework模块" style="whiteSpace=wrap;html=1;rounded=1;" vertex="1" parent="77e6c97f196da883-3">
          <mxGeometry x="40" y="1300" width="120" height="60" as="geometry" />
        </mxCell>
        <mxCell id="-4ZueSVovbJm4pdZm2zm-62" value="调用GitLab" style="whiteSpace=wrap;html=1;rounded=1;" vertex="1" parent="77e6c97f196da883-3">
          <mxGeometry x="40" y="1400" width="120" height="60" as="geometry" />
        </mxCell>
        <mxCell id="77e6c97f196da883-4" value="脚手架服务" style="swimlane;html=1;startSize=20;" parent="77e6c97f196da883-1" vertex="1">
          <mxGeometry x="360" y="20" width="180" height="1750" as="geometry" />
        </mxCell>
        <mxCell id="-4ZueSVovbJm4pdZm2zm-14" value="生成工程文件" style="whiteSpace=wrap;html=1;rounded=1;" vertex="1" parent="77e6c97f196da883-4">
          <mxGeometry x="40" y="600" width="120" height="60" as="geometry" />
        </mxCell>
        <mxCell id="-4ZueSVovbJm4pdZm2zm-75" value="" style="endArrow=none;html=1;rounded=0;" edge="1" parent="77e6c97f196da883-4">
          <mxGeometry width="50" height="50" relative="1" as="geometry">
            <mxPoint x="-360" y="460" as="sourcePoint" />
            <mxPoint x="500" y="460" as="targetPoint" />
          </mxGeometry>
        </mxCell>
        <mxCell id="-4ZueSVovbJm4pdZm2zm-76" value="" style="endArrow=none;html=1;rounded=0;" edge="1" parent="77e6c97f196da883-4">
          <mxGeometry width="50" height="50" relative="1" as="geometry">
            <mxPoint x="-360" y="1100" as="sourcePoint" />
            <mxPoint x="500" y="1100" as="targetPoint" />
          </mxGeometry>
        </mxCell>
        <mxCell id="-4ZueSVovbJm4pdZm2zm-18" value="" style="edgeStyle=orthogonalEdgeStyle;rounded=0;orthogonalLoop=1;jettySize=auto;html=1;exitX=0.5;exitY=1;exitDx=0;exitDy=0;" edge="1" parent="77e6c97f196da883-1" source="-4ZueSVovbJm4pdZm2zm-14" target="-4ZueSVovbJm4pdZm2zm-17">
          <mxGeometry relative="1" as="geometry" />
        </mxCell>
        <mxCell id="-4ZueSVovbJm4pdZm2zm-20" value="" style="edgeStyle=orthogonalEdgeStyle;rounded=0;orthogonalLoop=1;jettySize=auto;html=1;" edge="1" parent="77e6c97f196da883-1" source="-4ZueSVovbJm4pdZm2zm-17" target="-4ZueSVovbJm4pdZm2zm-19">
          <mxGeometry relative="1" as="geometry" />
        </mxCell>
        <mxCell id="-4ZueSVovbJm4pdZm2zm-26" value="" style="edgeStyle=orthogonalEdgeStyle;rounded=0;orthogonalLoop=1;jettySize=auto;html=1;exitX=0.5;exitY=1;exitDx=0;exitDy=0;" edge="1" parent="77e6c97f196da883-1" source="-4ZueSVovbJm4pdZm2zm-19" target="-4ZueSVovbJm4pdZm2zm-25">
          <mxGeometry relative="1" as="geometry" />
        </mxCell>
        <mxCell id="-4ZueSVovbJm4pdZm2zm-30" value="" style="edgeStyle=orthogonalEdgeStyle;rounded=0;orthogonalLoop=1;jettySize=auto;html=1;" edge="1" parent="77e6c97f196da883-1" source="-4ZueSVovbJm4pdZm2zm-25" target="-4ZueSVovbJm4pdZm2zm-29">
          <mxGeometry relative="1" as="geometry" />
        </mxCell>
        <mxCell id="-4ZueSVovbJm4pdZm2zm-31" value="是" style="edgeLabel;html=1;align=center;verticalAlign=middle;resizable=0;points=[];" vertex="1" connectable="0" parent="-4ZueSVovbJm4pdZm2zm-30">
          <mxGeometry x="-0.441" y="-1" relative="1" as="geometry">
            <mxPoint as="offset" />
          </mxGeometry>
        </mxCell>
        <mxCell id="-4ZueSVovbJm4pdZm2zm-33" value="" style="edgeStyle=orthogonalEdgeStyle;rounded=0;orthogonalLoop=1;jettySize=auto;html=1;exitX=0.5;exitY=1;exitDx=0;exitDy=0;entryX=1;entryY=0.5;entryDx=0;entryDy=0;" edge="1" parent="77e6c97f196da883-1" source="-4ZueSVovbJm4pdZm2zm-29" target="-4ZueSVovbJm4pdZm2zm-32">
          <mxGeometry relative="1" as="geometry" />
        </mxCell>
        <mxCell id="77e6c97f196da883-5" value="GitLab" style="swimlane;html=1;startSize=20;" parent="77e6c97f196da883-1" vertex="1">
          <mxGeometry x="540" y="20" width="160" height="1750" as="geometry" />
        </mxCell>
        <mxCell id="-4ZueSVovbJm4pdZm2zm-1" value="查询工程列表" style="rounded=1;whiteSpace=wrap;html=1;" vertex="1" parent="77e6c97f196da883-5">
          <mxGeometry x="30" y="260" width="100" height="60" as="geometry" />
        </mxCell>
        <mxCell id="-4ZueSVovbJm4pdZm2zm-19" value="提交工程文件" style="whiteSpace=wrap;html=1;rounded=1;" vertex="1" parent="77e6c97f196da883-5">
          <mxGeometry x="30" y="730" width="120" height="60" as="geometry" />
        </mxCell>
        <mxCell id="-4ZueSVovbJm4pdZm2zm-56" value="返回 pom.xml" style="whiteSpace=wrap;html=1;rounded=1;" vertex="1" parent="77e6c97f196da883-5">
          <mxGeometry x="20" y="1120" width="120" height="60" as="geometry" />
        </mxCell>
        <mxCell id="-4ZueSVovbJm4pdZm2zm-64" value="提交 pom.xml" style="whiteSpace=wrap;html=1;rounded=1;" vertex="1" parent="77e6c97f196da883-5">
          <mxGeometry x="30" y="1400" width="120" height="60" as="geometry" />
        </mxCell>
        <mxCell id="-4ZueSVovbJm4pdZm2zm-74" value="" style="endArrow=none;html=1;rounded=0;" edge="1" parent="77e6c97f196da883-5">
          <mxGeometry width="50" height="50" relative="1" as="geometry">
            <mxPoint x="-540" y="240" as="sourcePoint" />
            <mxPoint x="320" y="240" as="targetPoint" />
          </mxGeometry>
        </mxCell>
        <mxCell id="-4ZueSVovbJm4pdZm2zm-2" value="" style="edgeStyle=orthogonalEdgeStyle;rounded=0;orthogonalLoop=1;jettySize=auto;html=1;" edge="1" parent="77e6c97f196da883-1" source="77e6c97f196da883-12" target="-4ZueSVovbJm4pdZm2zm-1">
          <mxGeometry relative="1" as="geometry" />
        </mxCell>
        <mxCell id="-4ZueSVovbJm4pdZm2zm-8" value="Nacos" style="swimlane;html=1;startSize=20;" vertex="1" parent="77e6c97f196da883-1">
          <mxGeometry x="700" y="20" width="160" height="1750" as="geometry" />
        </mxCell>
        <mxCell id="-4ZueSVovbJm4pdZm2zm-29" value="保存配置" style="whiteSpace=wrap;html=1;rounded=1;" vertex="1" parent="-4ZueSVovbJm4pdZm2zm-8">
          <mxGeometry x="30" y="865" width="120" height="60" as="geometry" />
        </mxCell>
        <mxCell id="-4ZueSVovbJm4pdZm2zm-15" value="" style="edgeStyle=orthogonalEdgeStyle;rounded=0;orthogonalLoop=1;jettySize=auto;html=1;" edge="1" parent="77e6c97f196da883-1" source="-4ZueSVovbJm4pdZm2zm-12" target="-4ZueSVovbJm4pdZm2zm-14">
          <mxGeometry relative="1" as="geometry" />
        </mxCell>
        <mxCell id="-4ZueSVovbJm4pdZm2zm-41" value="" style="edgeStyle=orthogonalEdgeStyle;rounded=0;orthogonalLoop=1;jettySize=auto;html=1;exitX=0.5;exitY=1;exitDx=0;exitDy=0;" edge="1" parent="77e6c97f196da883-1" source="-4ZueSVovbJm4pdZm2zm-1" target="-4ZueSVovbJm4pdZm2zm-40">
          <mxGeometry relative="1" as="geometry" />
        </mxCell>
        <mxCell id="-4ZueSVovbJm4pdZm2zm-55" value="" style="edgeStyle=orthogonalEdgeStyle;rounded=0;orthogonalLoop=1;jettySize=auto;html=1;" edge="1" parent="77e6c97f196da883-1" source="-4ZueSVovbJm4pdZm2zm-53" target="-4ZueSVovbJm4pdZm2zm-54">
          <mxGeometry relative="1" as="geometry" />
        </mxCell>
        <mxCell id="-4ZueSVovbJm4pdZm2zm-57" value="" style="edgeStyle=orthogonalEdgeStyle;rounded=0;orthogonalLoop=1;jettySize=auto;html=1;" edge="1" parent="77e6c97f196da883-1" source="-4ZueSVovbJm4pdZm2zm-54" target="-4ZueSVovbJm4pdZm2zm-56">
          <mxGeometry relative="1" as="geometry" />
        </mxCell>
        <mxCell id="-4ZueSVovbJm4pdZm2zm-59" value="" style="edgeStyle=orthogonalEdgeStyle;rounded=0;orthogonalLoop=1;jettySize=auto;html=1;exitX=0.5;exitY=1;exitDx=0;exitDy=0;entryX=1;entryY=0.5;entryDx=0;entryDy=0;" edge="1" parent="77e6c97f196da883-1" source="-4ZueSVovbJm4pdZm2zm-56" target="-4ZueSVovbJm4pdZm2zm-58">
          <mxGeometry relative="1" as="geometry" />
        </mxCell>
        <mxCell id="-4ZueSVovbJm4pdZm2zm-65" value="" style="edgeStyle=orthogonalEdgeStyle;rounded=0;orthogonalLoop=1;jettySize=auto;html=1;" edge="1" parent="77e6c97f196da883-1" source="-4ZueSVovbJm4pdZm2zm-62" target="-4ZueSVovbJm4pdZm2zm-64">
          <mxGeometry relative="1" as="geometry" />
        </mxCell>
        <mxCell id="-4ZueSVovbJm4pdZm2zm-44" value="" style="edgeStyle=orthogonalEdgeStyle;rounded=0;orthogonalLoop=1;jettySize=auto;html=1;" edge="1" parent="1" source="-4ZueSVovbJm4pdZm2zm-42" target="-4ZueSVovbJm4pdZm2zm-12">
          <mxGeometry relative="1" as="geometry" />
        </mxCell>
        <mxCell id="-4ZueSVovbJm4pdZm2zm-42" value="选择Framework模块" style="whiteSpace=wrap;html=1;rounded=1;" vertex="1" parent="1">
          <mxGeometry x="330" y="570" width="120" height="60" as="geometry" />
        </mxCell>
        <mxCell id="-4ZueSVovbJm4pdZm2zm-43" value="" style="edgeStyle=orthogonalEdgeStyle;rounded=0;orthogonalLoop=1;jettySize=auto;html=1;" edge="1" parent="1" source="-4ZueSVovbJm4pdZm2zm-3" target="-4ZueSVovbJm4pdZm2zm-42">
          <mxGeometry relative="1" as="geometry" />
        </mxCell>
        <mxCell id="-4ZueSVovbJm4pdZm2zm-69" value="" style="edgeStyle=orthogonalEdgeStyle;rounded=0;orthogonalLoop=1;jettySize=auto;html=1;" edge="1" parent="1" source="-4ZueSVovbJm4pdZm2zm-66" target="-4ZueSVovbJm4pdZm2zm-68">
          <mxGeometry relative="1" as="geometry" />
        </mxCell>
        <mxCell id="-4ZueSVovbJm4pdZm2zm-70" value="是" style="edgeLabel;html=1;align=center;verticalAlign=middle;resizable=0;points=[];" vertex="1" connectable="0" parent="-4ZueSVovbJm4pdZm2zm-69">
          <mxGeometry x="-0.0488" y="-2" relative="1" as="geometry">
            <mxPoint as="offset" />
          </mxGeometry>
        </mxCell>
        <mxCell id="-4ZueSVovbJm4pdZm2zm-73" value="否" style="edgeStyle=orthogonalEdgeStyle;rounded=0;orthogonalLoop=1;jettySize=auto;html=1;" edge="1" parent="1" source="-4ZueSVovbJm4pdZm2zm-66" target="-4ZueSVovbJm4pdZm2zm-71">
          <mxGeometry relative="1" as="geometry" />
        </mxCell>
        <mxCell id="-4ZueSVovbJm4pdZm2zm-66" value="Framework模块&lt;br&gt;是否需要配置" style="rhombus;whiteSpace=wrap;html=1;rounded=1;" vertex="1" parent="1">
          <mxGeometry x="340" y="1560" width="110" height="110" as="geometry" />
        </mxCell>
        <mxCell id="-4ZueSVovbJm4pdZm2zm-67" value="" style="edgeStyle=orthogonalEdgeStyle;rounded=0;orthogonalLoop=1;jettySize=auto;html=1;exitX=0.5;exitY=1;exitDx=0;exitDy=0;" edge="1" parent="1" source="-4ZueSVovbJm4pdZm2zm-64" target="-4ZueSVovbJm4pdZm2zm-66">
          <mxGeometry relative="1" as="geometry" />
        </mxCell>
        <mxCell id="-4ZueSVovbJm4pdZm2zm-68" value="保存配置" style="whiteSpace=wrap;html=1;rounded=1;" vertex="1" parent="1">
          <mxGeometry x="860" y="1585" width="120" height="60" as="geometry" />
        </mxCell>
        <mxCell id="-4ZueSVovbJm4pdZm2zm-71" value="结束" style="whiteSpace=wrap;html=1;rounded=1;" vertex="1" parent="1">
          <mxGeometry x="335" y="1720" width="120" height="60" as="geometry" />
        </mxCell>
      </root>
    </mxGraphModel>
  </diagram>
</mxfile>
